<?xml version="1.0" encoding="UTF-8"?>
<svg xmlns="http://www.w3.org/2000/svg" viewBox="0 0 380 168" role="img" aria-label="Tistrup Erhvervs- og Borgerforening — troldefamilien">
  <!-- =========================================================
       TEB Logo — Trolden Ti familien
       Barn (v), Far (midt), Mor (h) — bundjusteret på y=168
       ========================================================= -->

  <!-- ===================== BARN ============================= -->
  <svg x="0" y="60" width="90" height="108" viewBox="0 0 160 192">
    <!-- HOVE -->
    <ellipse cx="60" cy="184" rx="11" ry="6" fill="#B0B0B0" stroke="#2b1810" stroke-width="1.8"/>
    <ellipse cx="100" cy="184" rx="11" ry="6" fill="#B0B0B0" stroke="#2b1810" stroke-width="1.8"/>
    <!-- KROP -->
    <path fill="#E8B88A" stroke="#2b1810" stroke-width="1.8" stroke-linejoin="round"
      d="M 52 120 C 38 128, 36 156, 44 172 C 48 182, 55 184, 62 184 L 98 184 C 105 184, 112 182, 116 172 C 124 156, 122 128, 108 120 Z"/>
    <!-- ARME -->
    <path fill="#E8B88A" stroke="#2b1810" stroke-width="1.8" stroke-linejoin="round"
      d="M 42 130 Q 28 148, 32 168 Q 38 172, 44 168 Q 46 150, 52 138 Z"/>
    <path fill="#E8B88A" stroke="#2b1810" stroke-width="1.8" stroke-linejoin="round"
      d="M 118 130 Q 132 148, 128 168 Q 122 172, 116 168 Q 114 150, 108 138 Z"/>
    <!-- HALE -->
    <path fill="none" stroke="#2b1810" stroke-width="1.8" stroke-linecap="round"
      d="M 118 160 Q 138 168, 140 180"/>
    <ellipse cx="142" cy="182" rx="3" ry="4" fill="#E8B88A" stroke="#2b1810" stroke-width="1.8"/>
    <!-- HOVED -->
    <ellipse cx="80" cy="80" rx="42" ry="40" fill="#E8B88A" stroke="#2b1810" stroke-width="1.8"/>
    <!-- ØRER -->
    <ellipse cx="40" cy="78" rx="6" ry="8" fill="#E8B88A" stroke="#2b1810" stroke-width="1.8"/>
    <ellipse cx="120" cy="78" rx="6" ry="8" fill="#E8B88A" stroke="#2b1810" stroke-width="1.8"/>
    <!-- TOP-HÅR -->
    <path fill="#8B5A2B" stroke="#2b1810" stroke-width="1.8" stroke-linejoin="round"
      d="M 64 54 Q 68 42, 74 46 Q 80 38, 86 46 Q 92 42, 96 52 Q 80 62, 64 54 Z"/>
    <!-- SMÅ HORN-KNOPPER -->
    <path fill="#F5E6D3" stroke="#2b1810" stroke-width="1.8" stroke-linejoin="round"
      d="M 62 56 Q 58 46, 60 42 Q 64 42, 66 48 Q 66 54, 66 58 Z"/>
    <path fill="#F5E6D3" stroke="#2b1810" stroke-width="1.8" stroke-linejoin="round"
      d="M 98 56 Q 102 46, 100 42 Q 96 42, 94 48 Q 94 54, 94 58 Z"/>
    <!-- ØJNE -->
    <ellipse cx="66" cy="80" rx="8" ry="10" fill="#fff" stroke="#2b1810" stroke-width="1.8"/>
    <ellipse cx="94" cy="80" rx="8" ry="10" fill="#fff" stroke="#2b1810" stroke-width="1.8"/>
    <circle cx="68" cy="82" r="3.5" fill="#2b1810"/>
    <circle cx="92" cy="82" r="3.5" fill="#2b1810"/>
    <circle cx="66" cy="79" r="1.1" fill="#fff"/>
    <circle cx="90" cy="79" r="1.1" fill="#fff"/>
    <!-- NÆSE -->
    <ellipse cx="80" cy="96" rx="8" ry="6" fill="#E8B88A" stroke="#2b1810" stroke-width="1.8"/>
    <ellipse cx="77" cy="97" rx="1.1" ry="1.4" fill="#2b1810"/>
    <ellipse cx="83" cy="97" rx="1.1" ry="1.4" fill="#2b1810"/>
    <!-- MUND -->
    <path d="M 72 110 Q 80 116, 88 110" stroke="#2b1810" stroke-width="1.8" fill="none" stroke-linecap="round"/>
  </svg>

  <!-- ===================== FAR ============================== -->
  <svg x="98" y="0" width="140" height="168" viewBox="0 0 200 240">
    <!-- HOVE -->
    <ellipse cx="72" cy="228" rx="16" ry="8" fill="#B0B0B0" stroke="#2b1810" stroke-width="1.8"/>
    <ellipse cx="128" cy="228" rx="16" ry="8" fill="#B0B0B0" stroke="#2b1810" stroke-width="1.8"/>
    <path d="M 62 228 L 62 222 M 82 228 L 82 222 M 118 228 L 118 222 M 138 228 L 138 222"
          stroke="#2b1810" stroke-width="1.8" fill="none"/>
    <!-- KROP -->
    <path fill="#E8B88A" stroke="#2b1810" stroke-width="1.8" stroke-linejoin="round"
      d="M 60 130 C 40 140, 35 170, 45 200 C 48 214, 55 224, 68 226 L 132 226 C 145 224, 152 214, 155 200 C 165 170, 160 140, 140 130 Z"/>
    <path fill="#C99466" opacity="0.35" d="M 85 180 Q 100 200, 115 180 Q 100 210, 85 180 Z"/>
    <!-- ARME -->
    <path fill="#E8B88A" stroke="#2b1810" stroke-width="1.8" stroke-linejoin="round"
      d="M 45 140 Q 28 160, 32 190 Q 38 195, 46 190 Q 48 170, 58 150 Z"/>
    <path fill="#E8B88A" stroke="#2b1810" stroke-width="1.8" stroke-linejoin="round"
      d="M 155 140 Q 172 160, 168 190 Q 162 195, 154 190 Q 152 170, 142 150 Z"/>
    <!-- HALE -->
    <path fill="none" stroke="#2b1810" stroke-width="1.8" stroke-linecap="round"
      d="M 155 200 Q 175 210, 180 225"/>
    <ellipse cx="182" cy="228" rx="4" ry="5" fill="#E8B88A" stroke="#2b1810" stroke-width="1.8"/>
    <!-- HOVED -->
    <ellipse cx="100" cy="90" rx="52" ry="48" fill="#E8B88A" stroke="#2b1810" stroke-width="1.8"/>
    <!-- ØRER -->
    <ellipse cx="50" cy="88" rx="8" ry="10" fill="#E8B88A" stroke="#2b1810" stroke-width="1.8"/>
    <ellipse cx="150" cy="88" rx="8" ry="10" fill="#E8B88A" stroke="#2b1810" stroke-width="1.8"/>
    <path d="M 48 86 Q 50 90, 48 94" stroke="#2b1810" stroke-width="1.44" fill="none"/>
    <path d="M 152 86 Q 150 90, 152 94" stroke="#2b1810" stroke-width="1.44" fill="none"/>
    <!-- TOP-HÅR -->
    <path fill="#8B5A2B" stroke="#2b1810" stroke-width="1.8" stroke-linejoin="round"
      d="M 82 58 Q 85 44, 92 48 Q 96 38, 103 46 Q 110 40, 114 50 Q 120 46, 118 58 Q 116 66, 110 64 Q 100 72, 88 64 Q 84 66, 82 58 Z"/>
    <!-- HORN -->
    <path fill="#F5E6D3" stroke="#2b1810" stroke-width="1.8" stroke-linejoin="round"
      d="M 75 60 Q 68 44, 70 36 Q 74 34, 78 40 Q 80 52, 80 62 Z"/>
    <path fill="#F5E6D3" stroke="#2b1810" stroke-width="1.8" stroke-linejoin="round"
      d="M 125 60 Q 132 44, 130 36 Q 126 34, 122 40 Q 120 52, 120 62 Z"/>
    <!-- ØJNE -->
    <ellipse cx="82" cy="88" rx="9" ry="11" fill="#fff" stroke="#2b1810" stroke-width="1.8"/>
    <ellipse cx="118" cy="88" rx="9" ry="11" fill="#fff" stroke="#2b1810" stroke-width="1.8"/>
    <circle cx="84" cy="90" r="3.5" fill="#2b1810"/>
    <circle cx="116" cy="90" r="3.5" fill="#2b1810"/>
    <circle cx="82" cy="87" r="1" fill="#fff"/>
    <circle cx="114" cy="87" r="1" fill="#fff"/>
    <!-- NÆSE -->
    <ellipse cx="100" cy="108" rx="12" ry="10" fill="#E8B88A" stroke="#2b1810" stroke-width="1.8"/>
    <ellipse cx="96" cy="110" rx="1.5" ry="2" fill="#2b1810"/>
    <ellipse cx="104" cy="110" rx="1.5" ry="2" fill="#2b1810"/>
    <!-- NÆSERING -->
    <ellipse cx="100" cy="118" rx="10" ry="3" fill="none" stroke="#D4A853" stroke-width="2.34"/>
    <!-- MUND -->
    <path d="M 90 126 Q 100 132, 110 126" stroke="#2b1810" stroke-width="1.8" fill="none" stroke-linecap="round"/>
  </svg>

  <!-- ===================== MOR ============================== -->
  <svg x="246" y="12" width="130" height="156" viewBox="0 0 200 240">
    <!-- HOVE -->
    <ellipse cx="76" cy="228" rx="14" ry="7" fill="#B0B0B0" stroke="#2b1810" stroke-width="1.8"/>
    <ellipse cx="124" cy="228" rx="14" ry="7" fill="#B0B0B0" stroke="#2b1810" stroke-width="1.8"/>
    <!-- KROP -->
    <path fill="#E8B88A" stroke="#2b1810" stroke-width="1.8" stroke-linejoin="round"
      d="M 62 140 C 45 150, 42 180, 50 205 C 55 218, 64 226, 76 226 L 124 226 C 136 226, 145 218, 150 205 C 158 180, 155 150, 138 140 Z"/>
    <path d="M 80 150 Q 88 164, 96 152" stroke="#2b1810" stroke-width="1.62" fill="none" opacity="0.7"/>
    <path d="M 104 152 Q 112 164, 120 150" stroke="#2b1810" stroke-width="1.62" fill="none" opacity="0.7"/>
    <!-- ARME -->
    <path fill="#E8B88A" stroke="#2b1810" stroke-width="1.8" stroke-linejoin="round"
      d="M 48 148 Q 32 170, 36 195 Q 42 200, 50 195 Q 52 175, 60 158 Z"/>
    <path fill="#E8B88A" stroke="#2b1810" stroke-width="1.8" stroke-linejoin="round"
      d="M 152 148 Q 168 170, 164 195 Q 158 200, 150 195 Q 148 175, 140 158 Z"/>
    <!-- HALE -->
    <path fill="none" stroke="#2b1810" stroke-width="1.8" stroke-linecap="round"
      d="M 150 200 Q 172 212, 176 225"/>
    <ellipse cx="178" cy="228" rx="4" ry="5" fill="#E8B88A" stroke="#2b1810" stroke-width="1.8"/>
    <!-- HOVED -->
    <ellipse cx="100" cy="95" rx="48" ry="44" fill="#E8B88A" stroke="#2b1810" stroke-width="1.8"/>
    <!-- ØRER -->
    <ellipse cx="54" cy="92" rx="7" ry="9" fill="#E8B88A" stroke="#2b1810" stroke-width="1.8"/>
    <ellipse cx="146" cy="92" rx="7" ry="9" fill="#E8B88A" stroke="#2b1810" stroke-width="1.8"/>
    <!-- VENSTRE FLETNING -->
    <path fill="#8B5A2B" stroke="#2b1810" stroke-width="1.8" stroke-linejoin="round"
      d="M 54 78 Q 40 70, 32 82 Q 30 96, 38 104 Q 46 96, 52 88 Z"/>
    <path d="M 36 84 L 40 92 M 34 90 L 40 96" stroke="#2b1810" stroke-width="1.26" fill="none"/>
    <path fill="#C0392B" stroke="#2b1810" stroke-width="1.44"
      d="M 28 102 L 22 98 L 22 110 L 28 106 L 34 110 L 34 98 Z"/>
    <!-- HØJRE FLETNING -->
    <path fill="#8B5A2B" stroke="#2b1810" stroke-width="1.8" stroke-linejoin="round"
      d="M 146 78 Q 160 70, 168 82 Q 170 96, 162 104 Q 154 96, 148 88 Z"/>
    <path d="M 164 84 L 160 92 M 166 90 L 160 96" stroke="#2b1810" stroke-width="1.26" fill="none"/>
    <path fill="#C0392B" stroke="#2b1810" stroke-width="1.44"
      d="M 172 102 L 166 98 L 166 110 L 172 106 L 178 110 L 178 98 Z"/>
    <!-- TOP-HÅR -->
    <path fill="#8B5A2B" stroke="#2b1810" stroke-width="1.8" stroke-linejoin="round"
      d="M 82 64 Q 86 52, 92 56 Q 98 48, 104 56 Q 110 50, 114 58 Q 118 56, 118 66 Q 100 70, 82 64 Z"/>
    <!-- HORN -->
    <path fill="#F5E6D3" stroke="#2b1810" stroke-width="1.8" stroke-linejoin="round"
      d="M 78 66 Q 72 52, 74 46 Q 78 44, 82 50 Q 84 60, 84 68 Z"/>
    <path fill="#F5E6D3" stroke="#2b1810" stroke-width="1.8" stroke-linejoin="round"
      d="M 122 66 Q 128 52, 126 46 Q 122 44, 118 50 Q 116 60, 116 68 Z"/>
    <!-- ØJNE -->
    <ellipse cx="84" cy="92" rx="8" ry="10" fill="#fff" stroke="#2b1810" stroke-width="1.8"/>
    <ellipse cx="116" cy="92" rx="8" ry="10" fill="#fff" stroke="#2b1810" stroke-width="1.8"/>
    <circle cx="86" cy="94" r="3" fill="#2b1810"/>
    <circle cx="114" cy="94" r="3" fill="#2b1810"/>
    <circle cx="84" cy="91" r="0.9" fill="#fff"/>
    <circle cx="112" cy="91" r="0.9" fill="#fff"/>
    <!-- ØJENVIPPER -->
    <path d="M 76 84 L 74 82 M 80 82 L 79 79 M 120 82 L 121 79 M 124 84 L 126 82"
          stroke="#2b1810" stroke-width="1.26" stroke-linecap="round" fill="none"/>
    <!-- NÆSE -->
    <ellipse cx="100" cy="112" rx="10" ry="8" fill="#E8B88A" stroke="#2b1810" stroke-width="1.8"/>
    <ellipse cx="97" cy="114" rx="1.3" ry="1.7" fill="#2b1810"/>
    <ellipse cx="103" cy="114" rx="1.3" ry="1.7" fill="#2b1810"/>
    <!-- MUND -->
    <path d="M 92 128 Q 100 133, 108 128" stroke="#2b1810" stroke-width="1.8" fill="none" stroke-linecap="round"/>
  </svg>
</svg>
